<svg xmlns="http://www.w3.org/2000/svg" width="300" height="400" viewBox="0 0 1361 1814"><title>8筒</title><defs><path id="face" d="M493 1Q404 1 342.0 63.0Q280 125 280 213Q280 275 311.5 324.5Q343 374 394 402Q343 429 311.5 478.5Q280 528 280 589Q280 652 311.5 701.5Q343 751 394 778Q343 805 311.5 855.0Q280 905 280 967Q280 1029 311.5 1078.5Q343 1128 394 1155Q343 1183 311.5 1232.5Q280 1282 280 1344Q280 1432 342.0 1493.5Q404 1555 493 1555Q554 1555 603.5 1524.0Q653 1493 680 1443Q708 1493 757.5 1524.0Q807 1555 869 1555Q957 1555 1019.0 1493.5Q1081 1432 1081 1344Q1081 1282 1049.5 1232.5Q1018 1183 968 1155Q1018 1128 1049.5 1078.5Q1081 1029 1081 967Q1081 905 1049.5 855.0Q1018 805 968 778Q1018 751 1049.5 701.5Q1081 652 1081 589Q1081 528 1049.5 478.5Q1018 429 968 402Q1018 374 1049.5 324.5Q1081 275 1081 213Q1081 125 1019.0 63.0Q957 1 869 1Q807 1 757.5 32.5Q708 64 680 114Q653 64 603.5 32.5Q554 1 493 1Z M493 1178Q561 1178 609.0 1226.5Q657 1275 657 1344Q657 1413 609.0 1460.5Q561 1508 493 1508Q424 1508 375.5 1460.5Q327 1413 327 1344Q327 1275 375.5 1226.5Q424 1178 493 1178Z M869 1178Q938 1178 986.0 1226.5Q1034 1275 1034 1344Q1034 1413 986.0 1460.5Q938 1508 869 1508Q800 1508 752.0 1460.5Q704 1413 704 1344Q704 1275 752.0 1226.5Q800 1178 869 1178Z M493 1214Q439 1214 401.0 1252.0Q363 1290 363 1344Q363 1396 401.0 1434.5Q439 1473 493 1473Q545 1473 583.0 1434.5Q621 1396 621 1344Q621 1290 583.0 1252.0Q545 1214 493 1214Z M869 1214Q816 1214 778.0 1252.0Q740 1290 740 1344Q740 1396 778.0 1434.5Q816 1473 869 1473Q922 1473 960.5 1434.5Q999 1396 999 1344Q999 1290 960.5 1252.0Q922 1214 869 1214Z M493 1301Q509 1301 521.5 1313.5Q534 1326 534 1344Q534 1360 521.5 1372.5Q509 1385 493 1385Q475 1385 462.5 1372.5Q450 1360 450 1344Q450 1326 462.5 1313.5Q475 1301 493 1301Z M869 1301Q886 1301 898.5 1313.5Q911 1326 911 1344Q911 1360 898.5 1372.5Q886 1385 869 1385Q852 1385 839.0 1372.5Q826 1360 826 1344Q826 1326 839.0 1313.5Q852 1301 869 1301Z M493 1330Q478 1330 477 1344Q477 1356 493 1358Q505 1358 506 1344Q506 1331 493 1330Z M869 1330Q856 1330 855 1344Q855 1356 869 1358Q881 1358 882 1344Q882 1331 869 1330Z M680 1066Q712 1122 772 1155Q712 1187 680 1245Q649 1187 588 1155Q649 1122 680 1066Z M493 802Q561 802 609.0 850.0Q657 898 657 967Q657 1036 609.0 1083.5Q561 1131 493 1131Q424 1131 375.5 1083.5Q327 1036 327 967Q327 898 375.5 850.0Q424 802 493 802Z M869 802Q938 802 986.0 850.0Q1034 898 1034 967Q1034 1036 986.0 1083.5Q938 1131 869 1131Q800 1131 752.0 1083.5Q704 1036 704 967Q704 898 752.0 850.0Q800 802 869 802Z M493 837Q439 837 401.0 875.5Q363 914 363 967Q363 1020 401.0 1058.5Q439 1097 493 1097Q545 1097 583.0 1058.5Q621 1020 621 967Q621 914 583.0 875.5Q545 837 493 837Z M869 837Q816 837 778.0 875.5Q740 914 740 967Q740 1020 778.0 1058.5Q816 1097 869 1097Q922 1097 960.5 1058.5Q999 1020 999 967Q999 914 960.5 875.5Q922 837 869 837Z M493 924Q509 924 521.5 937.0Q534 950 534 967Q534 983 521.5 996.0Q509 1009 493 1009Q475 1009 462.5 996.0Q450 983 450 967Q450 950 462.5 937.0Q475 924 493 924Z M869 924Q886 924 898.5 937.0Q911 950 911 967Q911 983 898.5 996.0Q886 1009 869 1009Q852 1009 839.0 996.0Q826 983 826 967Q826 950 839.0 937.0Q852 924 869 924Z M493 953Q478 953 477 967Q477 979 493 980Q505 980 506 967Q506 954 493 953Z M869 953Q856 953 855 967Q855 979 869 980Q881 980 882 967Q882 954 869 953Z M680 688Q712 746 772 778Q712 811 680 868Q649 811 588 778Q649 746 680 688Z M493 425Q561 425 609.0 473.0Q657 521 657 589Q657 658 609.0 706.5Q561 755 493 755Q424 755 375.5 706.5Q327 658 327 589Q327 521 375.5 473.0Q424 425 493 425Z M869 425Q938 425 986.0 473.0Q1034 521 1034 589Q1034 658 986.0 706.5Q938 755 869 755Q800 755 752.0 706.5Q704 658 704 589Q704 521 752.0 473.0Q800 425 869 425Z M493 461Q439 461 401.0 499.0Q363 537 363 589Q363 643 401.0 681.0Q439 719 493 719Q545 719 583.0 681.0Q621 643 621 589Q621 537 583.0 499.0Q545 461 493 461Z M869 461Q816 461 778.0 499.0Q740 537 740 589Q740 643 778.0 681.0Q816 719 869 719Q922 719 960.5 681.0Q999 643 999 589Q999 537 960.5 499.0Q922 461 869 461Z M493 548Q509 548 521.5 560.5Q534 573 534 589Q534 607 521.5 619.5Q509 632 493 632Q475 632 462.5 619.5Q450 607 450 589Q450 573 462.5 560.5Q475 548 493 548Z M869 548Q886 548 898.5 560.5Q911 573 911 589Q911 607 898.5 619.5Q886 632 869 632Q852 632 839.0 619.5Q826 607 826 589Q826 573 839.0 560.5Q852 548 869 548Z M493 575Q478 575 477 589Q477 604 493 604Q505 604 506 589Q506 577 493 575Z M869 575Q856 575 855 589Q855 604 869 604Q881 604 882 589Q882 577 869 575Z M680 312Q712 369 772 402Q712 434 680 491Q649 434 588 402Q649 369 680 312Z M493 48Q561 48 609.0 96.0Q657 144 657 213Q657 282 609.0 330.0Q561 378 493 378Q424 378 375.5 330.0Q327 282 327 213Q327 144 375.5 96.0Q424 48 493 48Z M869 48Q938 48 986.0 96.0Q1034 144 1034 213Q1034 282 986.0 330.0Q938 378 869 378Q800 378 752.0 330.0Q704 282 704 213Q704 144 752.0 96.0Q800 48 869 48Z M493 83Q439 83 401.0 121.5Q363 160 363 213Q363 266 401.0 304.0Q439 342 493 342Q545 342 583.0 304.0Q621 266 621 213Q621 160 583.0 121.5Q545 83 493 83Z M869 83Q816 83 778.0 121.5Q740 160 740 213Q740 266 778.0 304.0Q816 342 869 342Q922 342 960.5 304.0Q999 266 999 213Q999 160 960.5 121.5Q922 83 869 83Z M493 171Q509 171 521.5 183.5Q534 196 534 213Q534 230 521.5 242.5Q509 255 493 255Q475 255 462.5 242.5Q450 230 450 213Q450 196 462.5 183.5Q475 171 493 171Z M869 171Q886 171 898.5 183.5Q911 196 911 213Q911 230 898.5 242.5Q886 255 869 255Q852 255 839.0 242.5Q826 230 826 213Q826 196 839.0 183.5Q852 171 869 171Z M493 198Q485 198 481.0 202.5Q477 207 477 213Q477 226 493 227Q505 227 506 213Q506 207 502.5 202.5Q499 198 493 198Z M869 198Q862 198 858.5 202.5Q855 207 855 213Q855 226 869 227Q881 227 882 213Q882 207 878.5 202.5Q875 198 869 198Z M492 124Q528 124 554.0 150.5Q580 177 580 213Q580 249 554.0 275.0Q528 301 492 301Q456 301 430.0 275.0Q404 249 404 213Q404 177 430.0 150.5Q456 124 492 124Z M869 124Q905 124 931.0 150.5Q957 177 957 213Q957 249 931.0 275.0Q905 301 869 301Q833 301 807.0 275.0Q781 249 781 213Q781 177 807.0 150.5Q833 124 869 124Z M492 502Q528 502 554.0 528.0Q580 554 580 590Q580 626 554.0 652.0Q528 678 492 678Q456 678 430.0 652.0Q404 626 404 590Q404 554 430.0 528.0Q456 502 492 502Z M869 502Q905 502 931.0 528.0Q957 554 957 590Q957 626 931.0 652.0Q905 678 869 678Q833 678 807.0 652.0Q781 626 781 590Q781 554 807.0 528.0Q833 502 869 502Z M492 878Q528 878 554.0 904.5Q580 931 580 967Q580 1003 554.0 1029.0Q528 1055 492 1055Q456 1055 430.0 1029.0Q404 1003 404 967Q404 931 430.0 904.5Q456 878 492 878Z M869 878Q905 878 931.0 904.5Q957 931 957 967Q957 1003 931.0 1029.0Q905 1055 869 1055Q833 1055 807.0 1029.0Q781 1003 781 967Q781 931 807.0 904.5Q833 878 869 878Z M492 1255Q528 1255 554.0 1281.0Q580 1307 580 1344Q580 1380 554.0 1406.0Q528 1432 492 1432Q456 1432 430.0 1406.0Q404 1380 404 1344Q404 1307 430.0 1281.0Q456 1255 492 1255Z M869 1255Q905 1255 931.0 1281.0Q957 1307 957 1344Q957 1380 931.0 1406.0Q905 1432 869 1432Q833 1432 807.0 1406.0Q781 1380 781 1344Q781 1307 807.0 1281.0Q833 1255 869 1255Z"/></defs><g transform="translate(0 1687) scale(1 -1)"><use href="#face" fill="#244c9c"/></g></svg>